<svg width="886" height="116" viewBox="0 0 886 116" fill="none" xmlns="http://www.w3.org/2000/svg">
<path d="M44.3 93.5L72.6 23H56L37.7 72.3L19.4 23H2.4L30.7 93.5H44.3ZM140.408 81.7L130.608 71.8C125.108 76.8 120.208 80 112.208 80C100.208 80 91.9078 70 91.9078 58V57.8C91.9078 45.8 100.408 36 112.208 36C119.208 36 124.708 39 130.108 43.9L139.908 32.6C133.408 26.2 125.508 21.8 112.308 21.8C90.8078 21.8 75.8078 38.1 75.8078 58V58.2C75.8078 78.3 91.1078 94.2 111.708 94.2C125.208 94.2 133.208 89.4 140.408 81.7ZM168.136 37H206.036V23H152.736V93H168.136V65.9H201.536V51.9H168.136V37ZM263.741 37H301.641V23H248.341V93H263.741V65.9H297.141V51.9H263.741V37ZM366.302 66.3V66.1C366.302 50.7 354.002 38.4 337.402 38.4C320.702 38.4 308.302 50.9 308.302 66.3V66.5C308.302 81.9 320.602 94.2 337.202 94.2C353.902 94.2 366.302 81.7 366.302 66.3ZM351.302 66.3V66.5C351.302 74.4 346.102 81.1 337.402 81.1C329.002 81.1 323.302 74.2 323.302 66.3V66.1C323.302 58.2 328.502 51.5 337.202 51.5C345.602 51.5 351.302 58.4 351.302 66.3ZM408.808 54.3H409.608V38.4C400.608 38 395.608 42.8 392.508 50.2V39.4H377.308V93H392.508V73.2C392.508 60.4 398.708 54.3 408.808 54.3ZM485.705 93H500.905V58.1C500.905 45.2 494.105 38.4 482.805 38.4C475.505 38.4 469.905 41.4 465.205 46.9C462.405 41.5 457.105 38.4 450.105 38.4C442.405 38.4 437.805 42.5 434.305 47V39.4H419.105V93H434.305V63.1C434.305 55.9 437.805 52.2 443.505 52.2C449.205 52.2 452.405 55.9 452.405 63.1V93H467.605V63.1C467.605 55.9 471.105 52.2 476.805 52.2C482.505 52.2 485.705 55.9 485.705 63.1V93ZM610.205 58V57.8C610.205 38.1 595.005 23 573.005 23H545.705V93H573.005C595.005 93 610.205 77.7 610.205 58ZM594.105 58V58.2C594.105 70.6 585.605 79.1 573.005 79.1H561.105V36.9H573.005C585.605 36.9 594.105 45.6 594.105 58ZM672.327 67.7V67.5C672.327 52.3 664.127 38.4 646.227 38.4C630.627 38.4 619.727 51 619.727 66.3V66.5C619.727 82.9 631.627 94.2 647.727 94.2C657.427 94.2 664.627 90.4 669.627 84.2L660.927 76.5C656.727 80.4 653.027 82 647.927 82C641.127 82 636.327 78.4 634.827 71.5H672.127C672.227 70.1 672.327 69.2 672.327 67.7ZM657.527 62H634.627C635.827 55.1 639.927 50.6 646.227 50.6C652.627 50.6 656.627 55.2 657.527 62ZM750.255 93H765.455V58.1C765.455 45.2 758.655 38.4 747.355 38.4C740.055 38.4 734.455 41.4 729.755 46.9C726.955 41.5 721.655 38.4 714.655 38.4C706.955 38.4 702.355 42.5 698.855 47V39.4H683.655V93H698.855V63.1C698.855 55.9 702.355 52.2 708.055 52.2C713.755 52.2 716.955 55.9 716.955 63.1V93H732.155V63.1C732.155 55.9 735.655 52.2 741.355 52.2C747.055 52.2 750.255 55.9 750.255 63.1V93ZM834.075 66.3V66.1C834.075 50.7 821.775 38.4 805.175 38.4C788.475 38.4 776.075 50.9 776.075 66.3V66.5C776.075 81.9 788.375 94.2 804.975 94.2C821.675 94.2 834.075 81.7 834.075 66.3ZM819.075 66.3V66.5C819.075 74.4 813.875 81.1 805.175 81.1C796.775 81.1 791.075 74.2 791.075 66.3V66.1C791.075 58.2 796.275 51.5 804.975 51.5C813.375 51.5 819.075 58.4 819.075 66.3Z" fill="#635BFF"/>
<path d="M842.33 11.26H848.72V7H831.32V11.26H837.71V28H842.33V11.26ZM868.683 28H873.273V7H868.293L862.773 15.88L857.253 7H852.273V28H856.803V14.38L862.653 23.26H862.773L868.683 14.29V28Z" fill="#635BFF"/>
</svg>
