<svg width="180" height="180" viewBox="0 0 180 180" fill="none" xmlns="http://www.w3.org/2000/svg">
<path d="M62.935 107.225L75.67 75.5H68.2L59.965 97.685L51.73 75.5H44.08L56.815 107.225H62.935ZM106.184 101.915L101.774 97.46C99.2985 99.71 97.0935 101.15 93.4935 101.15C88.0935 101.15 84.3585 96.65 84.3585 91.25V91.16C84.3585 85.76 88.1835 81.35 93.4935 81.35C96.6435 81.35 99.1185 82.7 101.549 84.905L105.959 79.82C103.034 76.94 99.4785 74.96 93.5385 74.96C83.8635 74.96 77.1135 82.295 77.1135 91.25V91.34C77.1135 100.385 83.9985 107.54 93.2685 107.54C99.3435 107.54 102.944 105.38 106.184 101.915ZM118.661 81.8H135.716V75.5H111.731V107H118.661V94.805H133.691V88.505H118.661V81.8Z" fill="#635BFF"/>
<circle cx="90" cy="90" r="85" stroke="#635BFF" stroke-width="10"/>
</svg>
