<svg xmlns="http://www.w3.org/2000/svg" fill="none" viewBox="0 0 188 188">
  <g clip-path="url(#a)">
    <path fill="currentColor" d="M93.95 15.66a78.29 78.29 0 0 1 76.783 93.562A78.288 78.288 0 0 1 15.661 93.949a78.525 78.525 0 0 1 78.288-78.288zm0-15.66a93.95 93.95 0 1 0 93.948 93.95A94.226 94.226 0 0 0 93.949 0zM78.287 62.636a7.394 7.394 0 0 1-7.826 7.826 7.394 7.394 0 0 1-7.827-7.827 7.394 7.394 0 0 1 7.827-7.826 7.393 7.393 0 0 1 7.826 7.827zm0 15.66H62.636v46.975h15.652V78.296zm23.488 0H86.123v46.975h15.661V102.56c0-13.308 15.661-14.877 15.661 0v22.703h15.661V98.647c0-25.84-24.272-25.056-31.314-11.74l-.016-8.61z"/>
  </g>
  <defs>
    <clipPath id="a">
      <path fill="#fff" d="M0 0h188v188H0z"/>
    </clipPath>
  </defs>
</svg>
